<mxfile host="65bd71144e" scale="1" border="20">
    <diagram id="M6_oYvQnbFlfbDrMnSk9" name="Page-1">
        <mxGraphModel dx="906" dy="567" grid="1" gridSize="10" guides="1" tooltips="1" connect="1" arrows="1" fold="1" page="1" pageScale="1" pageWidth="827" pageHeight="1169" background="#ffffff" math="0" shadow="0">
            <root>
                <mxCell id="0"/>
                <mxCell id="1" parent="0"/>
                <mxCell id="9" value="" style="rounded=0;whiteSpace=wrap;html=1;fontSize=20;fillColor=#CDFAF7;strokeColor=none;" parent="1" vertex="1">
                    <mxGeometry x="80" y="520" width="680" height="290" as="geometry"/>
                </mxCell>
                <mxCell id="8" value="" style="rounded=0;whiteSpace=wrap;html=1;fontSize=20;fillColor=#dae8fc;strokeColor=none;" parent="1" vertex="1">
                    <mxGeometry x="80" y="230" width="680" height="290" as="geometry"/>
                </mxCell>
                <mxCell id="2" value="" style="endArrow=none;html=1;strokeWidth=3;" parent="1" edge="1">
                    <mxGeometry width="50" height="50" relative="1" as="geometry">
                        <mxPoint x="80" y="520" as="sourcePoint"/>
                        <mxPoint x="760" y="520" as="targetPoint"/>
                    </mxGeometry>
                </mxCell>
                <mxCell id="3" value="" style="endArrow=classic;html=1;strokeWidth=3;endFill=1;fillColor=#fff2cc;strokeColor=#d6b656;" parent="1" edge="1">
                    <mxGeometry width="50" height="50" relative="1" as="geometry">
                        <mxPoint x="160" y="800" as="sourcePoint"/>
                        <mxPoint x="400" y="520" as="targetPoint"/>
                    </mxGeometry>
                </mxCell>
                <mxCell id="4" value="" style="endArrow=classic;html=1;strokeWidth=3;endFill=1;fillColor=#fff2cc;strokeColor=#d6b656;opacity=70;" parent="1" edge="1">
                    <mxGeometry width="50" height="50" relative="1" as="geometry">
                        <mxPoint x="400" y="520" as="sourcePoint"/>
                        <mxPoint x="640" y="800" as="targetPoint"/>
                    </mxGeometry>
                </mxCell>
                <mxCell id="5" value="" style="endArrow=none;html=1;strokeWidth=2;dashed=1;dashPattern=8 8;startArrow=none;" parent="1" source="9" edge="1">
                    <mxGeometry width="50" height="50" relative="1" as="geometry">
                        <mxPoint x="400" y="980" as="sourcePoint"/>
                        <mxPoint x="400" y="520" as="targetPoint"/>
                    </mxGeometry>
                </mxCell>
                <mxCell id="6" value="n&lt;sub style=&quot;&quot;&gt;&lt;font style=&quot;font-size: 20px;&quot;&gt;1&lt;/font&gt;&lt;/sub&gt;" style="text;html=1;strokeColor=none;fillColor=none;align=center;verticalAlign=middle;whiteSpace=wrap;rounded=0;fontSize=29;" parent="1" vertex="1">
                    <mxGeometry x="100" y="550" width="60" height="30" as="geometry"/>
                </mxCell>
                <mxCell id="7" value="n&lt;sub&gt;&lt;font style=&quot;font-size: 20px;&quot;&gt;2&lt;/font&gt;&lt;/sub&gt;" style="text;html=1;strokeColor=none;fillColor=none;align=center;verticalAlign=middle;whiteSpace=wrap;rounded=0;fontSize=29;" parent="1" vertex="1">
                    <mxGeometry x="100" y="460" width="60" height="30" as="geometry"/>
                </mxCell>
                <mxCell id="10" value="" style="endArrow=none;html=1;strokeWidth=2;dashed=1;dashPattern=8 8;" parent="1" edge="1">
                    <mxGeometry width="50" height="50" relative="1" as="geometry">
                        <mxPoint x="400" y="980" as="sourcePoint"/>
                        <mxPoint x="400" y="220" as="targetPoint"/>
                    </mxGeometry>
                </mxCell>
                <mxCell id="11" value="" style="endArrow=classic;html=1;strokeWidth=3;endFill=1;fillColor=#fff2cc;strokeColor=#d6b656;entryX=0.588;entryY=0.241;entryDx=0;entryDy=0;entryPerimeter=0;opacity=60;" parent="1" target="8" edge="1">
                    <mxGeometry width="50" height="50" relative="1" as="geometry">
                        <mxPoint x="400" y="520" as="sourcePoint"/>
                        <mxPoint x="450" y="290" as="targetPoint"/>
                    </mxGeometry>
                </mxCell>
                <mxCell id="12" value="" style="curved=1;endArrow=none;html=1;strokeWidth=2;fontSize=20;endFill=0;" parent="1" edge="1">
                    <mxGeometry width="50" height="50" relative="1" as="geometry">
                        <mxPoint x="330" y="610" as="sourcePoint"/>
                        <mxPoint x="400" y="640" as="targetPoint"/>
                        <Array as="points">
                            <mxPoint x="340" y="640"/>
                            <mxPoint x="400" y="650"/>
                            <mxPoint x="400" y="640"/>
                        </Array>
                    </mxGeometry>
                </mxCell>
                <mxCell id="13" value="" style="curved=1;endArrow=none;html=1;strokeWidth=2;fontSize=20;endFill=0;" parent="1" edge="1">
                    <mxGeometry width="50" height="50" relative="1" as="geometry">
                        <mxPoint x="470" y="610" as="sourcePoint"/>
                        <mxPoint x="400" y="640" as="targetPoint"/>
                        <Array as="points">
                            <mxPoint x="460" y="640"/>
                            <mxPoint x="400" y="650"/>
                            <mxPoint x="400" y="640"/>
                        </Array>
                    </mxGeometry>
                </mxCell>
                <mxCell id="14" value="" style="curved=1;endArrow=none;html=1;strokeWidth=2;fontSize=20;endFill=0;" parent="1" edge="1">
                    <mxGeometry width="50" height="50" relative="1" as="geometry">
                        <mxPoint x="460" y="360" as="sourcePoint"/>
                        <mxPoint x="400" y="340" as="targetPoint"/>
                        <Array as="points">
                            <mxPoint x="460" y="340"/>
                            <mxPoint x="400" y="330"/>
                            <mxPoint x="400" y="340"/>
                        </Array>
                    </mxGeometry>
                </mxCell>
                <mxCell id="15" value="&lt;b style=&quot;caret-color: rgb(32, 33, 34); color: rgb(32, 33, 34); font-family: sans-serif; text-align: start; text-size-adjust: auto;&quot;&gt;&lt;font style=&quot;font-size: 24px;&quot;&gt;θ&lt;/font&gt;&lt;font style=&quot;font-size: 16px;&quot;&gt;2&lt;/font&gt;&lt;/b&gt;" style="text;html=1;strokeColor=none;fillColor=none;align=center;verticalAlign=middle;whiteSpace=wrap;rounded=0;fontSize=20;" parent="1" vertex="1">
                    <mxGeometry x="410" y="280" width="60" height="30" as="geometry"/>
                </mxCell>
                <mxCell id="16" value="&lt;b style=&quot;caret-color: rgb(32, 33, 34); color: rgb(32, 33, 34); font-family: sans-serif; text-align: start; text-size-adjust: auto;&quot;&gt;&lt;font style=&quot;font-size: 24px;&quot;&gt;θ&lt;/font&gt;&lt;font style=&quot;font-size: 16px;&quot;&gt;1&lt;/font&gt;&lt;/b&gt;" style="text;html=1;strokeColor=none;fillColor=none;align=center;verticalAlign=middle;whiteSpace=wrap;rounded=0;fontSize=20;" parent="1" vertex="1">
                    <mxGeometry x="310" y="670" width="60" height="30" as="geometry"/>
                </mxCell>
                <mxCell id="17" value="&lt;b style=&quot;caret-color: rgb(32, 33, 34); color: rgb(32, 33, 34); font-family: sans-serif; text-align: start; text-size-adjust: auto;&quot;&gt;&lt;font style=&quot;font-size: 24px;&quot;&gt;θ&lt;/font&gt;&lt;font style=&quot;font-size: 16px;&quot;&gt;1&lt;/font&gt;&lt;/b&gt;" style="text;html=1;strokeColor=none;fillColor=none;align=center;verticalAlign=middle;whiteSpace=wrap;rounded=0;fontSize=20;" parent="1" vertex="1">
                    <mxGeometry x="430" y="670" width="60" height="30" as="geometry"/>
                </mxCell>
                <mxCell id="19" value="&lt;font style=&quot;font-size: 23px;&quot;&gt;n&lt;sub style=&quot;&quot;&gt;1&lt;/sub&gt; . sin(&lt;span style=&quot;border-color: var(--border-color); caret-color: rgb(32, 33, 34); color: rgb(32, 33, 34); font-family: sans-serif; text-align: start; text-size-adjust: auto;&quot;&gt;&lt;font style=&quot;border-color: var(--border-color); font-size: 23px;&quot;&gt;θ&lt;/font&gt;&lt;font style=&quot;border-color: var(--border-color); font-size: 23px;&quot;&gt;&lt;sub&gt;1&lt;/sub&gt;&lt;/font&gt;&lt;/span&gt;) = n&lt;sub style=&quot;&quot;&gt;2&lt;/sub&gt; . sin(&lt;span style=&quot;border-color: var(--border-color); caret-color: rgb(32, 33, 34); color: rgb(32, 33, 34); font-family: sans-serif; text-align: start; text-size-adjust: auto;&quot;&gt;&lt;font style=&quot;border-color: var(--border-color); font-size: 23px;&quot;&gt;θ&lt;/font&gt;&lt;font style=&quot;border-color: var(--border-color); font-size: 23px;&quot;&gt;&lt;sub&gt;2&lt;/sub&gt;&lt;/font&gt;&lt;/span&gt;)&lt;/font&gt;" style="text;html=1;strokeColor=none;fillColor=none;align=center;verticalAlign=middle;whiteSpace=wrap;rounded=0;" vertex="1" parent="1">
                    <mxGeometry x="320" y="440" width="560" height="90" as="geometry"/>
                </mxCell>
            </root>
        </mxGraphModel>
    </diagram>
</mxfile>